<?xml version="1.0" standalone="no"?><!DOCTYPE svg PUBLIC "-//W3C//DTD SVG 1.1//EN" "http://www.w3.org/Graphics/SVG/1.1/DTD/svg11.dtd"><svg t="1759574629382" class="icon" viewBox="0 0 1024 1024" version="1.1" xmlns="http://www.w3.org/2000/svg" p-id="9877" xmlns:xlink="http://www.w3.org/1999/xlink" width="200" height="200"><path d="M560.6656 115.67104c-0.88832 1.43872 5.35296 24.20224 8.40448 30.65344 4.24704 8.98048 15.5392 18.82368 34.84416 30.36672C651.8656 205.36576 691.2 233.82528 691.2 239.8464c0 3.0208-27.55328-11.8784-58.368-31.5648a196.97152 196.97152 0 0 0-8.8448-5.18912 2204.12928 2204.12928 0 0 1-20.45952-11.60448c-14.34112-8.21248-17.54368-9.86368-32.64768-16.8448-20.71808-9.57696-25.15456-11.21024-43.42784-16-19.58144-5.13024-63.27808-6.16192-86.69184-2.04288-20.08576 3.53536-33.53344 6.95552-50.61632 12.87936-22.0672 7.6544-35.47904 14.37952-54.784 27.47648-33.0112 22.39232-55.35232 44.20352-75.18464 73.408-9.6128 14.15424-9.5616 15.87712 0.3072 10.3424 11.6224-6.5152 27.12064-14.39232 33.40544-16.97792a569.5232 569.5232 0 0 0 9.728-4.09344c19.2512-8.512 65.07776-23.06816 84.48-26.83392 4.224-0.82176 9.984-1.94304 12.8-2.496 29.63968-5.80608 67.82208-2.6496 94.89152 7.84128 23.67488 9.1776 25.63072 13.6704 3.92448 9.01888-29.8752-6.39744-58.57536-8.9088-73.61024-6.43584-18.99264 3.1232-64.21248 15.73632-69.23776 19.3152-0.5632 0.39936-5.16864 2.2656-10.23488 4.14464-14.59968 5.41696-50.83904 23.92576-73.22112 37.39648-38.65856 23.26528-59.19744 49.94048-69.49888 90.2656-5.40672 21.15328-5.16608 22.1184 3.99616 16.1536a326.5536 326.5536 0 0 1 11.74272-7.20896c3.3792-1.96352 6.8352-3.99104 7.68-4.51072 14.5536-8.9344 20.096-12.07552 30.34624-17.1904 35.4688-17.69984 35.24096-15.0272-1.16224 13.63968C219.89632 421.57056 205.19168 436.46208 179.18976 471.04c-35.95008 47.80032-46.13376 55.7952-72.69376 57.05984-10.94656 0.51968-17.27232-0.55296-28.99456-4.92544-13.67296-5.09696-13.42464-3.74528 2.33472 12.64384 18.5472 19.28704 26.8544 24.89344 45.02016 30.3872 32.08704 9.7024 53.6064 8.33536 81.87648-5.20704 13.59104-6.51008 13.88544-5.94176 4.60032 8.86016-13.4528 21.44-17.78944 34.33728-17.79456 52.90752-0.00768 36.92544 20.0832 61.66272 78.84544 97.08032 47.77728 28.79744 68.1984 44.42368 84.5568 64.70656 9.29024 11.52 10.6752 15.67488 10.6752 32.02048v13.89056h2.64192c3.43808 0 13.18656-9.76384 17.152-17.1776l2.89024-5.4016-0.36096-19.6864c-0.26112-14.31808-0.80384-21.0816-1.98656-24.8064-0.896-2.816-2.43968-8.3456-3.4304-12.288-2.24768-8.93952-3.59424-13.4656-8.22784-27.648-7.13472-21.84448-7.6544-24.064-5.63968-24.064 1.78432 0 24.60928 34.70848 24.60928 37.41696 0 0.2816 1.0752 2.22976 2.38848 4.33152 7.58784 12.12928 18.23488 42.97472 21.29152 61.67552 8.4736 51.84512 1.20064 76.03456-32.73216 108.86912-9.74848 9.4336-9.41568 9.91744 6.85824 9.90976 7.11936-0.00256 14.55872-0.41728 16.52992-0.9216 1.9712-0.50176 8.192-1.67168 13.824-2.59584 27.70688-4.5568 48.15616-13.89824 76.8-35.0848 38.27712-28.31104 50.8288-55.36256 39.81824-85.8112-5.94176-16.4352-6.13888-16.90624-11.58144-27.93728-2.85696-5.79328-5.1968-10.76224-5.1968-11.04128 0-1.1776-11.29728-23.00416-15.20896-29.3888-15.14496-24.71424 20.0704 12.032 39.02464 40.72192 27.25888 41.25184 25.7408 70.43584-5.38368 103.63648a845.10208 845.10208 0 0 0-10.70848 11.6352c-2.22976 2.496-8.56576 9.21088-14.08 14.9248s-10.02752 10.89792-10.02752 11.52c0 2.86208 22.92224 1.0624 33.04448-2.59328 2.1248-0.768 5.3504-1.408 7.168-1.4208 1.82016-0.01536 6.74816-1.16736 10.95168-2.56 4.20352-1.3952 8.48128-2.5344 9.50784-2.5344 6.12352 0 45.952-18.28352 53.05088-24.35328 5.97248-5.10976 11.24864-14.53056 12.33664-22.03392 0.50688-3.49184 1.3824-8.8832 1.94304-11.9808 0.56064-3.0976 1.3952-7.72352 1.85088-10.2784 1.45664-8.17664 4.74368-10.0224 5.85728-3.2896 0.35072 2.112 1.1264 5.12512 1.72544 6.69696 3.61984 9.5104 0.18432 59.59424-4.76928 69.52448-0.84736 1.69984-1.83552 4.65408-2.19392 6.56896l-0.6528 3.4816h4.70784c15.93856 0 76.48256-29.90848 109.696-54.18752 14.91968-10.90816 49.26208-48.69632 48.41984-53.27872-0.16128-0.87552-4.8512-3.89632-10.42432-6.71488-13.04576-6.59968-13.16608-6.81728-8.07424-14.40256 5.96224-8.8832 23.5008-40.44032 24.22272-43.58656 1.14688-4.98944-1.49248-5.67552-9.60256-2.49088-8.38144 3.28704-10.92096 3.16928-10.36288-0.4736 0.21504-1.39264 0.44544-10.59328 0.512-20.44928l0.12544-17.92-4.33408-10.56c-2.38336-5.80608-5.02528-12.02688-5.86752-13.824-5.53472-11.77344-6.94016-22.016-4.10368-29.888 0.81152-2.2528 1.48224-4.71808 1.48992-5.4784 0.00768-0.75776 0.66048-2.83136 1.44896-4.608l4.84608-10.9056c14.09536-31.72352 25.72544-46.87616 45.30688-59.04128 11.87072-7.3728 12.78464-6.83008 10.94656 6.48704a793.00352 793.00352 0 0 0-2.12736 17.01376c-0.4864 4.38784-1.41568 9.59232-2.06592 11.56352-2.50112 7.57504 0.79872 8.38912 11.68384 2.88256 25.72032-13.0048 44.34688-30.52032 54.89152-51.6096 1.31584-2.63168 6.99136-9.216 13.23776-15.36 15.72352-15.45984 24.32512-34.33728 24.6016-53.99296 0.05888-4.06784 0.68608-4.97408 10.46528-15.09888 13.12256-13.58336 15.12192-16.75776 15.16544-24.05632l0.03072-5.59872-7.424-7.26272c-26.14528-25.57952-63.10656-49.62816-108.57984-70.6432-4.7488-2.19392-5.34528-3.27168-6.71232-12.11136-1.69728-10.99008-5.75488-18.2656-16.36352-29.34784-10.46016-10.92608-10.51904-11.07456-6.48192-16.23552 10.65216-13.61664 18.37056-40.13568 15.64416-53.75488-3.4176-17.0752-14.15168-28.76672-35.47136-38.63296-10.5728-4.89472-11.60704-4.2368-6.1312 3.89376 1.9712 2.92608 3.584 5.55776 3.584 5.84448 0 0.28928 1.11104 2.9568 2.4704 5.92896 11.33312 24.7808 9.16736 40.41472-2.42688 17.51552-7.76192-15.32928-19.58656-33.04704-26.32448-39.44192-11.6864-11.09248-29.41952-22.30528-42.32704-26.75712-7.58016-2.61632-10.66496-3.34848-35.84-8.50688-19.18464-3.9296-20.02176-4.11904-33.28-7.5648-20.02688-5.20448-22.1952-5.82656-29.696-8.5248-23.78496-8.55296-36.81024-16.37376-55.94368-33.58208-8.2048-7.38048-8.59136-7.62368-9.56672-6.04672m-56.0896 170.37824c6.7712 4.1856 92.71296 3.54048 111.872-0.83712 7.3728-1.68448 11.27936-1.96096 11.23584-0.79616-0.08448 2.33728-24.7296 23.63136-35.57376 30.73792-3.02336 1.97888-13.47072 1.88928-28.39808-0.25088-5.632-0.8064-14.6176-1.75616-19.968-2.112-5.3504-0.35584-13.2608-1.3312-17.58208-2.17088-4.31872-0.83712-9.15712-1.35168-10.752-1.14176l-2.89792 0.38144 5.632 5.30432c3.0976 2.9184 9.31328 8.20224 13.81376 11.74272 13.0944 10.304 11.55328 11.68384-8.43776 7.55968-5.74464-1.18528-6.4-1.152-6.4 0.32768 0 6.22336 19.52512 24.7552 33.91744 32.18944 15.50848 8.01536 12.05504 10.91328-7.80544 6.55104-28.71808-6.30784-45.6576-18.26304-57.70752-40.73472-9.57184-17.85088-13.69344-42.8672-8-48.5632l2.39104-2.38848 11.84512 1.79968c6.51264 0.99072 12.28288 2.07104 12.81536 2.40128m211.9808 8.73472c10.88512 3.02592 22.30016 8.22784 37.888 17.26464 7.28064 4.21888 8.1664 2.57792 3.35104-6.19776-5.83424-10.63424-5.76-10.69056 7.42144-5.71136 24.32768 9.18784 43.95008 22.99904 53.94432 37.96736 5.50912 8.25088 6.97344 14.63296 2.6496 11.55328-17.344-12.35456-20.53376-13.20192-16.41728-4.35968 2.50112 5.37344 3.4304 13.09952 1.57696 13.09952-0.52992 0-3.17952-2.63168-5.888-5.84704-8.83456-10.49088-15.95648-17.70496-17.48224-17.70496-1.78176 0-1.58208 1.40032 2.22976 15.84128 1.48224 5.61408 2.4704 10.79808 2.19392 11.52-0.57344 1.49248-7.82592 1.8048-9.32352 0.3968-6.17728-5.79584-35.14368-9.49248-43.08224-5.49888-5.48352 2.75968-18.2144 4.64128-27.12064 4.00896-15.92576-1.12896-12.68224 1.6 25.58976 21.5296 7.79776 4.06016 18.54208 4.59264 35.36384 1.75104 14.73792-2.49088 17.22368-1.0112 13.45536 8.01024-5.22496 12.50304-24.99584 15.59808-52.79488 8.2688-17.79712-4.69248-18.69312-4.32384-8.704 3.57632 21.74208 17.19552 60.2112 18.35008 78.8352 2.36544 11.38432-9.77152 17.19552-10.90048 41.69984-8.1024 14.4128 1.64608 15.54688 1.6256 15.92576-0.26368 0.55808-2.7648-22.70464-14.99392-32.0128-16.832-17.7152-3.49696-16.37632-6.63552 2.83136-6.63552 22.15936 0 53.49888 15.64928 92.40064 46.13888 19.3024 15.12704 22.82752 20.42112 13.5936 20.42112-2.41408 0-6.00064 0.52992-7.96928 1.1776-2.23488 0.73728-16.448 1.408-37.88032 1.792-29.29664 0.5248-34.304 0.83456-34.304 2.12736 0 0.83968 7.98208 6.6304 17.92 13.00224 9.856 6.31808 21.1456 13.56288 25.088 16.09728 18.80064 12.0832 22.94272 20.68992 16.63744 34.59328-8.70656 19.20512-16.81408 21.83424-67.32544 21.83424h-27.136l-5.98528-2.8032c-7.22688-3.38688-19.30496-14.70976-26.39616-24.75008l-4.99456-7.07072v-10.94656c0-12.00896 2.93888-20.22144 11.97056-33.44896 10.29376-15.07584-5.58336-6.21312-23.3344 13.02528-15.1296 16.3968-22.49216 17.35168-9.43104 1.22368 8.1024-10.00192 3.7248-10.93632-15.13984-3.2256-26.5728 10.85696-27.98592 11.25632-40.064 11.30496-20.92288 0.08192-45.42976-19.72736-59.34848-47.9744-10.57024-21.44512 1.82784-54.91968 31.62112-85.38368 7.488-7.65952 13.61408-14.27712 13.61408-14.70976 0-1.472-9.50016 1.19808-17.92 5.03296-6.9888 3.18464-37.11232 14.69952-40.192 15.36256-4.61056 0.99584-4.40576-1.26464 0.56832-6.272 47.96416-48.28416 57.05472-53.4528 81.87648-46.54848M413.80608 339.712c-0.54016 0.9856-5.24032 6.6304-10.43968 12.544-13.27616 15.09376-21.4144 25.46688-21.4144 27.29472 0 1.92768 7.33696 1.52064 20.48-1.13152 9.41056-1.89952 28.2752-1.66912 40.448 0.49408 3.3792 0.6016 9.1392 1.53344 12.8 2.0736 13.78048 2.03264 16.80128 5.61664 5.376 6.37696-62.2976 4.1472-97.25952 18.17344-149.0944 59.81184-15.95392 12.81536-14.57408 6.51008 5.1968-23.71584 18.94144-28.9664 32.71424-44.42368 52.87936-59.35104 25.68448-19.01568 47.49312-31.17312 43.76832-24.3968M593.92 410.93888c0 6.83008-14.528 36.46464-23.86432 48.6784-11.96032 15.64928-52.01408 36.15744-104.56576 53.5424-3.42528 1.13152-7.14752 2.42688-8.27392 2.87744-1.1264 0.45056-9.1904 3.15648-17.92 6.01856-8.7296 2.85952-19.7888 6.6304-24.576 8.38144-4.7872 1.74848-10.3168 3.66336-12.288 4.25472-1.9712 0.59136-4.0448 1.42592-4.608 1.856-0.5632 0.43008-3.4944 1.5872-6.5152 2.5728-3.0208 0.9856-6.7072 2.42688-8.192 3.20256-1.4848 0.77312-3.41504 1.41056-4.288 1.41568-0.87296 0.00256-2.02496 0.4096-2.56 0.90368-0.53504 0.49152-3.5072 1.82528-6.6048 2.96192-3.0976 1.13664-8.72704 3.48672-12.51072 5.21984a543.00928 543.00928 0 0 1-13.06112 5.75488c-48.5888 20.45184-58.51392 48.4352-37.48864 105.7024 8.88064 24.18944-27.92192-17.10336-38.26176-42.9312-10.3808-25.92512 11.49696-60.86912 50.65984-80.9088 6.63296-3.39456 45.57568-19.21792 47.33184-19.23072 0.42496-0.00512 2.0608-0.68096 3.63776-1.50272a40.66048 40.66048 0 0 1 6.144-2.45248c1.80224-0.5248 7.1936-2.40128 11.9808-4.1728 16.49152-6.09536 48.9088-16.59392 69.632-22.55104 4.224-1.21344 10.2144-3.04896 13.312-4.07808 3.0976-1.02912 12.95616-4.26752 21.90848-7.19616s17.24672-5.70368 18.432-6.16704l10.85952-4.21888c25.97888-10.08384 41.61536-21.4912 55.27552-40.32768 11.77344-16.23552 16.40448-21.20448 16.40448-17.60512m163.83744 87.49312c-0.0128 2.3168-4.79232 7.90016-11.17952 13.06112-8.5632 6.91712-9.3568 9.2032-2.89792 8.32 25.3952-3.47392 26.73152-1.58464 10.24 14.49216-6.33344 6.17216-10.46528 10.92608-9.728 11.19488 1.46176 0.52992 13.25056-2.17856 18.87488-4.33408 5.05088-1.93792 16.29952-2.92096 18.24512-1.59744 2.36288 1.60768 0.56832 3.69408-11.34848 13.18656-28.87936 23.00416-55.38816 65.93792-84.21376 136.40192l-7.23456 17.68704c-4.26496 10.42944-6.56384 15.07584-7.45984 15.07584-1.2032 0 0.59904-24.06912 2.17856-29.09184 0.8704-2.7648 1.58208-6.99136 1.58208-9.39264 0-4.4928 1.39008-12.544 3.25376-18.85952 0.58368-1.9712 1.42592-7.5008 1.87392-12.288 0.44544-4.7872 1.56928-12.6208 2.49344-17.408 1.48224-7.68 2.56768-12.9152 6.58944-31.744 8.00512-37.4656 23.19616-69.98784 40.75776-87.24992 10.36032-10.18368 27.99104-21.184 27.97312-17.45408m-141.30944 6.48192c0 0.60672-1.10592 3.94752-2.4576 7.424-5.66272 14.54592-8.40448 27.1616-12.3904 57.00608-3.65824 27.38944-2.048 36.02944 4.07808 21.85472 10.29632-23.82848 32.7808-51.39712 56.44288-69.2096 20.72064-15.59808 23.58272-15.87456 12.87424-1.24416-17.04192 23.28832-25.7024 37.7856-31.16288 52.18304-8.8832 23.41376-20.224 62.42816-24.25856 83.456-0.59392 3.0976-1.55392 7.936-2.13248 10.752-0.57856 2.816-1.71776 10.4192-2.5344 16.896-4.60544 36.61312-6.26176 39.84128-11.56352 22.528-1.2928-4.224-3.27168-10.6752-4.40064-14.336-1.1264-3.6608-2.91072-9.8816-3.96544-13.824-1.05472-3.9424-3.13856-11.3152-4.62848-16.384-3.5584-12.09344-5.7216-19.90656-9.64608-34.816-5.96224-22.66368-4.02944-53.66784 4.90752-78.73024 7.19104-20.15744 30.83776-53.55776 30.83776-43.55584m269.80352 43.91424c1.68448 2.72896-9.9968 19.03872-19.06688 26.61632-10.45504 8.73472-11.28192 6.86848-4.95616-11.15904 4.48-12.76672 5.96992-15.0912 10.07104-15.72352 5.4912-0.84224 13.35808-0.69376 13.952 0.26624M515.072 560.99328c0 1.344-2.89024 3.51232-11.75296 8.8192-49.19808 29.45792-65.51808 68.7232-52.0448 125.22752 1.86368 7.8208-8.12032-2.20672-15.552-15.616-12.61056-22.76096-11.24608-61.53728 2.84928-80.97536 9.80736-13.51936 36.50048-28.45696 62.16448-34.78272 3.6608-0.90368 8.0384-2.0224 9.728-2.48576 4.22912-1.15968 4.608-1.17504 4.608-0.18688m250.03776 124.83072c5.90336 9.05728 8.0128 18.21184 7.99488 34.72128-0.0256 24.55808-2.97984 29.8368-18.4704 33.01632-2.50368 0.512-7.08864 1.90208-10.18624 3.08736-14.58688 5.57824-18.81088 3.30496-23.60832-12.71296a865.65888 865.65888 0 0 0-3.09248-10.1376c-2.79552-8.77056-1.52064-12.98432 6.8096-22.48448 4.26752-4.86912 8.41472-8.84992 9.21856-8.84992 1.64096 0 9.33888 10.01984 13.9648 18.176 3.31008 5.84192 6.04672 6.92736 8.04352 3.19232 1.5744-2.93888 0.87296-23.90528-0.85504-25.63328-2.41408-2.41408-1.55136-10.17344 1.48736-13.34272 3.68384-3.84512 5.70368-3.61984 8.69376 0.96768m-68.41344 34.87744c0.34304 2.07872 0.63744 6.08256 0.6528 8.89856 0.0256 4.42624 1.37728 10.64704 5.10976 23.552 0.48896 1.6896 1.62816 4.9152 2.53184 7.168 0.90368 2.2528 1.94048 5.0176 2.30144 6.144 3.37152 10.47808 10.18624 20.88192 19.88096 30.35136 12.32128 12.032 12.3776 10.83904-1.4464 30.57664l-3.94496 5.632 3.73248 0.32256c3.41504 0.2944 9.11616-1.13152 28.39808-7.11168 15.32672-4.75136 12.57472 1.18528-8.95232 19.31776-8.70656 7.3344-29.056 21.77536-30.68416 21.77536-0.2816 0-3.52256 1.8432-7.20384 4.096-10.33728 6.32576-15.97696 5.03296-11.8272-2.71104 1.15456-2.15296 2.0992-5.6576 2.0992-7.78496 0-2.12992 0.65536-6.51264 1.45408-9.74336 3.79904-15.33696 4.70528-34.32192 2.48064-51.83744-1.80736-14.21568-3.6096-14.14656-10.39872 0.3968-4.84352 10.37568-7.47776 14.336-9.52832 14.336-1.86368 0-1.46176-45.16608 0.47872-53.76 0.63488-2.816 1.41824-7.6544 1.7408-10.752 0.32-3.0976 1.46688-9.088 2.54464-13.312 1.07776-4.224 2.2144-9.36192 2.52416-11.41504 1.25184-8.27648 6.89408-11.1744 8.05632-4.13952m76.99712 48.95488c-1.40544 5.60384-11.66592 18.82368-14.60736 18.82368-2.1504 0-15.66208-9.09568-15.66208-10.54208 0-2.944 19.63776-10.41152 28.52608-10.84416 2.112-0.1024 2.33216 0.22016 1.74336 2.56256" fill="#050505" p-id="9878"></path><path d="M466.51392 33.65888c-0.30208 0.48896-4.70016 1.21344-9.77408 1.61024-5.07392 0.3968-9.48736 1.14944-9.80992 1.67168-0.32256 0.51968-2.08384 0.9472-3.91424 0.9472s-4.22144 0.67584-5.31712 1.50272c-1.32096 1.00096-4.53376 1.51552-9.6 1.536-7.04512 0.03072-18.25024 2.02752-23.10656 4.11904-1.1264 0.48384-4.57216 1.17504-7.6544 1.536-3.0848 0.3584-6.08 1.03168-6.656 1.49504-1.2032 0.96256-8.88576 2.87488-16.50176 4.10624-2.8672 0.46336-6.208 1.35424-7.424 1.97888-5.56288 2.8544-6.37696 3.18208-7.88736 3.18208-0.8832 0-3.53792 0.83968-5.9008 1.86624a331.3664 331.3664 0 0 1-8.39168 3.48672c-14.79424 5.84192-23.63392 9.55392-26.3552 11.06688-0.97792 0.54272-2.41664 0.98816-3.2 0.98816-1.77664 0-26.63936 12.39808-27.10528 13.5168-0.18944 0.45056-0.96256 0.8192-1.72032 0.8192-0.75776 0-1.98656 0.57856-2.72896 1.28768-0.74496 0.70656-3.30752 2.20416-5.69344 3.328-2.38848 1.12128-4.34688 2.38592-4.352 2.80832-0.00768 0.4224-0.76544 0.768-1.68448 0.768-1.79968 0-8.86016 3.99616-9.4208 5.33248-0.18944 0.44544-0.88064 0.82432-1.536 0.83968-0.65792 0.01536-3.00544 1.39776-5.21728 3.072-2.21184 1.67424-4.59264 3.04384-5.29152 3.04384-0.69632 0-1.4208 0.34816-1.61024 0.77568-0.18688 0.42752-3.79648 3.07712-8.02048 5.888-4.224 2.81088-8.04864 5.68832-8.4992 6.39232-0.45056 0.704-1.48736 1.28-2.304 1.28-0.81664 0-1.4848 0.4608-1.4848 1.024 0 0.5632-0.50944 1.024-1.13152 1.024-1.41824 0-8.4608 5.42976-13.2352 10.20672-1.98912 1.98912-5.67552 4.94336-8.192 6.56384-2.51904 1.62304-5.72928 4.15744-7.13728 5.632-1.408 1.47712-3.78624 3.47392-5.28128 4.43904-1.4976 0.96512-4.032 3.6096-5.632 5.8752-1.60256 2.2656-3.68128 4.37504-4.62336 4.68736-2.01216 0.67072-16.71168 15.19872-19.13856 18.91584-0.91904 1.408-2.752 3.4816-4.07296 4.608a75.1872 75.1872 0 0 0-5.12512 4.97664c-1.49504 1.6128-4.26752 4.57728-6.15936 6.59456-1.89184 2.01472-4.65664 5.504-6.144 7.7568-1.48736 2.2528-4.17792 5.66272-5.98016 7.57504-1.80224 1.91488-4.68736 5.39904-6.41536 7.744C120.35328 234.74432 117.76 238.42816 117.76 239.03232c0 0.3712-1.152 1.91488-2.56 3.43296-1.408 1.52064-2.56 3.10784-2.56 3.53024 0 0.4224-2.0736 3.79648-4.608 7.49824-2.5344 3.70176-4.608 7.12448-4.608 7.60576a1.43872 1.43872 0 0 1-0.81152 1.216c-1.33632 0.56064-5.33248 7.62112-5.33248 9.4208 0 0.91904-0.3456 1.6768-0.768 1.68448-0.4224 0.00512-1.68704 1.96352-2.80832 4.352-1.12384 2.38592-2.62144 4.94848-3.328 5.69344-0.70912 0.7424-1.28768 1.9712-1.28768 2.72896 0 0.75776-0.36352 1.53088-0.80896 1.72032-0.44544 0.18688-2.93632 4.48768-5.53216 9.55648-2.59584 5.0688-5.4528 10.5984-6.35136 12.288-0.896 1.6896-1.63328 4.08064-1.6384 5.31456-0.00256 1.23392-0.43008 2.50624-0.94976 2.8288-0.51968 0.32-1.24928 1.96096-1.61792 3.64544-0.36864 1.68192-1.09568 3.0592-1.61536 3.0592-0.51712 0-0.94208 0.6784-0.94208 1.50784 0 0.82944-1.10848 3.93984-2.46272 6.912-1.3568 2.97216-3.5456 8.62976-4.864 12.57216-1.32096 3.9424-2.71104 7.40352-3.08736 7.69024-0.37888 0.28672-0.99072 1.89952-1.35936 3.584-0.66304 3.01312-1.53344 5.41696-3.61472 9.97376-0.57856 1.2672-1.472 4.608-1.984 7.424-1.52832 8.38656-3.2896 15.29088-4.18304 16.4096-0.46336 0.576-1.13664 3.5712-1.49504 6.656-0.36096 3.08224-1.05216 6.528-1.536 7.6544-2.07104 4.80768-4.08576 16.01792-4.08576 22.72512 0 5.17888-0.4352 7.59296-1.536 8.50688-0.87552 0.72704-1.536 2.95936-1.536 5.184 0 2.1504-0.41216 4.16512-0.91392 4.47744-0.50432 0.30976-1.24416 4.71808-1.64608 9.79456-0.40192 5.07648-1.14176 9.4848-1.64608 9.79456-1.2032 0.74496-1.2032 91.28192 0 92.02688 0.50432 0.30976 1.24416 4.71808 1.64608 9.79456 0.40192 5.07648 1.14176 9.4848 1.64608 9.79456 0.50176 0.31232 0.91392 2.32704 0.91392 4.47744 0 2.1504 0.63232 4.43392 1.40288 5.07392 0.96 0.79616 1.55392 4.5568 1.8816 11.93984 0.27392 6.1824 0.9856 11.28192 1.66912 11.96544 0.65536 0.65536 1.1904 2.45248 1.1904 3.99616s0.3968 3.05152 0.87808 3.35104c0.48384 0.29952 1.13152 3.20512 1.43872 6.46144 0.3072 3.25376 1.29024 7.29856 2.18624 8.98816 0.896 1.6896 1.63072 4.31104 1.63584 5.82656 0.00256 1.51552 0.46592 3.04128 1.02912 3.38944 0.5632 0.34816 1.024 2.47808 1.024 4.73344s1.09312 6.49216 2.42688 9.41312c1.33632 2.92096 2.75968 7.26784 3.16416 9.66144 0.40192 2.3936 1.152 4.352 1.66656 4.352s0.9344 0.8192 0.9344 1.82016c0 1.00096 0.63232 2.72896 1.40544 3.84 0.77312 1.11104 1.73824 3.54816 2.14528 5.41696 0.40448 1.8688 1.3824 4.6336 2.17088 6.144 0.78848 1.5104 1.43616 3.12064 1.44128 3.57888 0.00768 1.33632 5.56032 12.44672 6.40512 12.82048 0.4224 0.18944 0.768 1.53344 0.768 2.99264 0 2.4704 5.64736 15.49824 7.21152 16.63488 0.38656 0.2816 1.02912 1.5488 1.42336 2.816 0.3968 1.2672 1.14944 2.304 1.67424 2.304 0.5248 0 0.95488 0.67584 0.95488 1.50528 0 1.44128 3.88864 9.72032 5.06368 10.78272 1.0112 0.91392 3.17184 4.56192 3.7888 6.4 0.3328 0.9856 0.95232 1.792 1.37984 1.792 0.42496 0 1.05728 1.40288 1.40032 3.11808 0.34304 1.71776 1.78176 4.64128 3.2 6.49728 1.41568 1.85856 2.57536 3.66592 2.57536 4.0192 0 1.14688 6.51264 9.91744 7.36512 9.91744 0.45568 0 0.82688 0.65792 0.82688 1.46176 0 0.8064 0.59904 2.0736 1.3312 2.816 0.73216 0.74496 3.06944 4.1856 5.1968 7.64416 2.12736 3.46112 4.75392 7.24224 5.83936 8.40704 1.08288 1.16224 1.96864 2.57024 1.96864 3.12832 0 0.56064 0.57856 1.38496 1.28512 1.83552 0.70912 0.45056 3.20256 3.39456 5.5424 6.54336 2.3424 3.1488 4.88192 6.3744 5.64736 7.168 0.76544 0.7936 2.4576 2.82624 3.75808 4.51584 5.25824 6.82496 10.21952 12.56704 16.78592 19.4176 18.64448 19.45344 32.71936 33.3184 33.82272 33.3184 0.33792 0 3.68384 2.9952 7.4368 6.656 3.75296 3.6608 7.17312 6.656 7.60064 6.656 0.42752 0 2.42688 1.4976 4.43904 3.328 2.01472 1.8304 5.31712 4.48 7.33952 5.888 2.01984 1.408 4.54144 3.2512 5.60128 4.096 1.05984 0.8448 2.93888 2.2272 4.17536 3.072 1.23648 0.8448 3.69664 2.79552 5.47072 4.33664 1.77152 1.53856 3.60192 2.80576 4.06528 2.816 0.4608 0.00768 1.48224 0.59136 2.26816 1.29536 3.904 3.50208 9.20576 6.912 10.74688 6.912 0.61952 0 2.6368 1.152 4.48256 2.56 1.84832 1.408 3.63008 2.56 3.96544 2.56s2.0864 1.34912 3.8912 2.99776c1.8048 1.64864 4.42624 3.28448 5.82656 3.63776 1.40032 0.35072 4.20608 1.7664 6.2336 3.14624 2.03008 1.37728 4.2752 2.50624 4.98944 2.50624 0.71424 0 1.29792 0.45312 1.29792 1.00352 0 0.55296 1.152 1.29536 2.56 1.64864s2.56 1.05216 2.56 1.55392c0 0.50432 0.75776 0.91392 1.68448 0.91392 1.79968 0 13.57312 5.62688 20.33152 9.72032 2.2528 1.36192 4.8768 2.49856 5.83424 2.52416 0.95488 0.02304 3.904 1.19552 6.55104 2.60352 2.6496 1.408 5.2096 2.56 5.69344 2.56 0.48128 0 3.2896 1.1648 6.23872 2.58816 2.95168 1.42336 7.21152 2.8672 9.46688 3.21024 2.25792 0.3456 4.56448 0.97024 5.12768 1.39008 0.5632 0.4224 2.5216 1.088 4.352 1.47968 1.8304 0.38912 3.328 1.13408 3.328 1.65376 0 0.51712 1.088 0.94208 2.41664 0.94208 1.32864 0 5.13024 1.37728 8.448 3.0592 3.85536 1.95584 7.60064 3.06432 10.38336 3.072 2.3936 0.00768 4.352 0.4736 4.352 1.0368 0 0.5632 1.0368 1.02656 2.304 1.02912 1.2672 0.00512 3.67616 0.72192 5.35296 1.59744 1.6768 0.87552 5.9392 1.86112 9.472 2.1888 3.5328 0.33024 6.42304 0.94464 6.42304 1.36448 0 0.41984 1.4976 1.0112 3.328 1.31328 1.8304 0.30464 5.4016 1.024 7.936 1.60512 2.5344 0.57856 7.49312 1.07264 11.0208 1.09824 3.52768 0.02304 7.21408 0.48896 8.192 1.03168 0.97792 0.54272 5.696 1.47456 10.4832 2.07104 4.7872 0.59648 12.16 1.5616 16.384 2.14272 11.07968 1.5232 103.26272 0.8192 105.984-0.80896 1.1264-0.67584 5.61664-1.51808 9.97632-1.87136 4.36224-0.35584 8.18944-1.07008 8.50944-1.58464 0.31744-0.51456 3.89376-0.9472 7.94368-0.96256 4.04992-0.0128 9.20576-0.50432 11.45856-1.09312 2.2528-0.5888 5.248-1.3056 6.656-1.58976 1.408-0.28416 3.4816-0.90624 4.608-1.38496 1.1264-0.47616 4.51584-1.11616 7.53152-1.42336 3.01824-0.30464 6.01344-0.99072 6.656-1.5232 0.64512-0.53248 2.9056-1.2928 5.02272-1.6896 2.11968-0.39424 4.10368-1.1264 4.41344-1.6256s2.26304-0.9088 4.34176-0.9088c2.07872 0 6.69952-1.3824 10.27072-3.072 3.5712-1.6896 7.08864-3.072 7.81824-3.072 0.7296 0 2.64704-0.68864 4.25984-1.53088 1.6128-0.83968 3.712-1.53088 4.66432-1.536 0.95232-0.00256 1.97888-0.40448 2.28352-0.89344 0.30208-0.49152 2.40128-1.18784 4.66432-1.5488 2.26304-0.36096 6.70976-1.8048 9.87904-3.20768 3.16928-1.40032 6.35648-2.5472 7.08352-2.5472 0.7296 0 1.47712-0.3456 1.66656-0.768 0.53248-1.20064 6.96832-4.352 8.88576-4.352 1.73568 0 5.82144-1.97888 12.44672-6.0288 1.9712-1.20576 4.3904-2.4704 5.376-2.80832 0.9856-0.34048 1.792-0.9728 1.792-1.408 0-0.4352 1.67168-1.10592 3.71712-1.48736 3.32288-0.62464 7.03232-2.43968 13.21728-6.47424 1.10592-0.71936 2.816-1.57952 3.8016-1.90976 0.9856-0.3328 1.792-0.96 1.792-1.3952 0-0.43776 1.2672-1.10336 2.816-1.48224 1.5488-0.37632 4.51584-2.04032 6.59712-3.69408 2.07872-1.65376 4.1088-3.008 4.51072-3.008 0.40192 0 2.24-1.152 4.08832-2.56 1.84576-1.408 3.84768-2.56 4.44672-2.56 0.6016 0 1.09312-0.4608 1.09312-1.024 0-0.5632 0.65792-1.024 1.46176-1.024 0.8064 0 2.08384-0.576 2.8416-1.28 1.83552-1.70496 10.97728-7.936 11.64288-7.936 0.53504 0 0.90624-0.2944 7.05792-5.632 4.79232-4.15744 5.68832-4.81024 9.73824-7.08864 1.92512-1.08288 5.3248-3.61728 7.55712-5.632l9.27232-8.37376c2.8672-2.59072 6.34112-5.58592 7.72096-6.656 3.26656-2.5344 36.8384-36.10624 39.3728-39.3728 1.07008-1.37984 4.06528-4.81536 6.656-7.63648 6.3744-6.9376 10.9696-12.78208 14.66112-18.64704 1.69472-2.69312 3.83744-5.63456 4.75904-6.53568 2.98752-2.92352 7.30624-8.05632 7.30624-8.68096 0-0.8832 6.5152-10.09664 7.424-10.50112 0.4224-0.18944 0.768-0.96256 0.768-1.72032 0-0.75776 0.58112-1.98656 1.2928-2.72896 0.70912-0.74496 1.8048-2.50624 2.42944-3.91424 0.6272-1.408 3.2384-5.34528 5.80352-8.74752 2.56512-3.40224 4.97664-7.43424 5.36064-8.96 0.38144-1.52576 1.05216-2.77248 1.48992-2.77248 0.4352 0 1.07264-0.8064 1.41312-1.792 0.34048-0.9856 1.52064-3.1744 2.62144-4.864 3.52-5.4016 5.11744-8.82176 5.78816-12.3904 0.3584-1.91488 1.00864-3.4816 1.44384-3.4816 0.4352 0 1.06752-0.8064 1.408-1.792 0.33792-0.9856 1.60256-3.4048 2.80832-5.376 4.29312-7.02208 6.0288-10.752 6.0288-12.95616 0-1.2288 0.3456-2.38592 0.768-2.57536 1.69984-0.7552 9.23648-18.9952 10.112-24.46592 0.35584-2.21952 0.98816-4.03456 1.408-4.03456 0.41984 0 1.05728-1.8432 1.41824-4.096 0.3584-2.2528 1.10848-4.096 1.66656-4.096 0.55552 0 1.0112-1.11104 1.0112-2.46784s1.3824-5.3888 3.072-8.96c1.6896-3.5712 3.072-8.192 3.072-10.27072 0-2.07872 0.4608-4.06528 1.024-4.41344 0.5632-0.34816 1.02656-1.64352 1.02912-2.87744 0.00512-1.23392 0.69888-3.56864 1.54368-5.18656 0.8448-1.62048 1.82528-5.53728 2.18112-8.704 0.35584-3.16928 0.9856-6.2208 1.40032-6.784 0.41728-0.5632 1.00608-2.4064 1.31328-4.096 0.30464-1.6896 1.04448-4.9152 1.64096-7.168 0.59392-2.2528 1.09312-7.40864 1.10592-11.45856 0.01536-4.04992 0.448-7.62624 0.96256-7.94368 0.51456-0.32 1.2288-4.1472 1.58464-8.50944 0.35328-4.35968 1.20064-8.84992 1.87648-9.97632 1.69984-2.82112 2.35264-96.10496 0.75008-107.008-0.62208-4.224-1.59744-11.3664-2.16832-15.872-0.57344-4.5056-1.44128-9.1136-1.9328-10.24-0.48896-1.1264-1.13408-6.1952-1.4336-11.264-0.4864-8.27392-1.19552-11.7248-3.78112-18.432-0.4352-1.1264-1.04192-4.51584-1.34912-7.53152-0.30464-3.01824-0.99072-6.01344-1.5232-6.656-0.53248-0.64512-1.2928-2.9056-1.6896-5.02272-0.39424-2.11968-1.1264-4.10368-1.6256-4.41344s-0.9088-2.40384-0.9088-4.65408c0-2.48832-1.2032-6.52032-3.072-10.28352-1.6896-3.40736-3.072-7.29856-3.072-8.64768 0-1.34912-0.41984-2.45504-0.9344-2.45504-0.51456 0-1.24416-1.8432-1.6256-4.096-0.38144-2.2528-1.0496-4.096-1.48736-4.096-0.43776 0-1.07776-2.06336-1.42336-4.58496-0.3456-2.5216-1.07776-5.4016-1.6256-6.4-0.54784-0.9984-1.76128-3.65824-2.69824-5.91104a188.1856 188.1856 0 0 0-4.14464-9.05472c-1.344-2.7264-2.46528-5.7216-2.48832-6.656-0.0256-0.9344-1.16224-3.54048-2.52416-5.79328-4.09344-6.7584-9.72032-18.53184-9.72032-20.33152 0-0.92672-0.4608-1.68448-1.024-1.68448-0.5632 0-1.024-0.65792-1.024-1.46176 0-0.8064-0.576-2.09152-1.28-2.85952-1.77664-1.93792-3.12832-4.2496-7.5648-12.9408-2.11712-4.14464-4.44928-7.76448-5.18144-8.04608-0.73472-0.2816-1.33376-0.99328-1.33376-1.58464 0-0.59136-1.0496-2.49856-2.33216-4.24192-1.28-1.74336-3.2384-4.99968-4.352-7.23712-1.11104-2.23744-2.85696-5.00224-3.88096-6.144-1.02144-1.14176-2.8416-3.68896-4.03968-5.66016-1.20064-1.9712-2.4832-3.8144-2.85184-4.096-0.36864-0.2816-3.48672-4.4288-6.92992-9.216-3.44576-4.7872-7.33696-9.856-8.64768-11.264-1.31328-1.408-4.30336-5.0944-6.6432-8.192-2.3424-3.0976-5.66272-6.77888-7.37792-8.18176-1.71776-1.40032-3.12064-2.97216-3.12064-3.49184 0-1.2928-16.2304-17.97888-31.90528-32.79872-1.49504-1.41568-2.87744-2.97472-3.072-3.46368-0.192-0.48896-2.51648-2.53184-5.16352-4.53888-2.64704-2.00704-6.52032-5.30432-8.60416-7.32928-2.0864-2.02752-4.1472-3.68384-4.5824-3.68384-0.43264 0-2.08896-1.30048-3.68128-2.89024-2.54208-2.53952-23.71072-18.4192-28.224-21.17376-0.9216-0.5632-5.73696-3.7888-10.69568-7.168-4.96128-3.3792-9.48224-6.33088-10.05056-6.55872-0.56576-0.22784-2.44992-1.49248-4.1856-2.80832-1.73824-1.31584-4.61824-2.68288-6.4-3.04128-1.78432-0.35584-3.24352-0.9984-3.24352-1.42336 0-0.42752-0.8064-1.04704-1.792-1.37984-1.83808-0.61696-5.48608-2.7776-6.4-3.7888-1.0624-1.17504-9.34144-5.06368-10.78272-5.06368-0.82944 0-1.50528-0.43008-1.50528-0.95488s-1.0368-1.27744-2.304-1.67424c-1.2672-0.39424-2.5344-1.00352-2.816-1.34912-1.01632-1.25184-7.00672-4.21376-8.51968-4.21376-0.85248 0-1.70752-0.47104-1.89952-1.04704-0.192-0.57856-2.1888-1.33888-4.43648-1.69472-2.24768-0.35584-4.31872-0.9216-4.60032-1.25696-0.57856-0.68864-5.67552-3.14112-11.776-5.66784-2.2528-0.9344-4.80256-2.07616-5.66528-2.54208-0.86272-0.46336-3.16672-1.1904-5.12-1.61536-1.95328-0.42496-4.45952-1.40544-5.57056-2.17856-1.11104-0.77312-2.83904-1.40544-3.84-1.40544s-1.82016-0.44032-1.82016-0.97792c0-0.5376-1.728-1.26208-3.84-1.61024-3.72224-0.61184-6.91968-1.71776-10.86464-3.75552-1.0496-0.54016-4.0448-1.38496-6.656-1.87648-11.55072-2.17344-16.09984-3.29472-17.25696-4.25216-0.68352-0.56576-4.03712-1.28-7.45216-1.58976-3.4176-0.30976-6.45632-0.96-6.75584-1.44384-0.29952-0.48128-1.80736-0.87808-3.35104-0.87808s-3.31264-0.50688-3.93472-1.12896c-0.62208-0.62208-6.12864-1.37728-12.2368-1.68192-6.84288-0.33792-11.88352-1.08544-13.12768-1.94048-1.11104-0.76544-3.27168-1.39264-4.80256-1.39264-1.53088 0-3.04384-0.41728-3.35872-0.92928-0.31488-0.50944-4.95872-1.25696-10.3168-1.65888-5.35808-0.40192-9.99168-1.13408-10.29888-1.63072-0.72192-1.16992-89.2288-1.18272-89.95328-0.01024m103.7184 88.05888c19.13344 17.20832 32.15872 25.02912 55.94368 33.58208 7.5008 2.69824 9.66912 3.32032 29.696 8.5248 13.25824 3.44576 14.09536 3.6352 33.28 7.5648 25.17504 5.1584 28.25984 5.89056 35.84 8.50688 12.90752 4.45184 30.64064 15.66464 42.32704 26.75712 6.73792 6.39488 18.56256 24.11264 26.32448 39.44192 11.59424 22.8992 13.76 7.26528 2.42688-17.51552-1.35936-2.97216-2.4704-5.63968-2.4704-5.92896 0-0.28672-1.6128-2.9184-3.584-5.84448-5.47584-8.13056-4.4416-8.78848 6.1312-3.89376 31.98976 14.80448 41.09312 33.10848 32.63232 65.61536-2.34496 9.00352-7.75424 20.31616-12.80512 26.77248-4.03712 5.16096-3.97824 5.30944 6.48192 16.23552 10.60864 11.08224 14.66624 18.35776 16.36352 29.34784 1.36704 8.83968 1.96352 9.91744 6.71232 12.11136 45.47328 21.01504 82.43456 45.06368 108.57984 70.6432l7.424 7.26272-0.03072 5.59872c-0.04352 7.29856-2.04288 10.47296-15.16544 24.05632-9.7792 10.1248-10.4064 11.03104-10.46528 15.09888-0.27648 19.65568-8.87808 38.53312-24.6016 53.99296-6.2464 6.144-11.92192 12.72832-13.23776 15.36-10.54464 21.08928-29.1712 38.6048-54.89152 51.6096-10.88512 5.50656-14.18496 4.69248-11.68384-2.88256 0.65024-1.9712 1.57952-7.17568 2.06592-11.56352 0.4864-4.38784 1.44384-12.0448 2.12736-17.01376 1.83808-13.31712 0.92416-13.85984-10.94656-6.48704-19.58144 12.16512-31.21152 27.31776-45.30688 59.04128l-4.84608 10.9056c-0.78848 1.77664-1.44128 3.85024-1.44896 4.608-0.00768 0.76032-0.6784 3.2256-1.48992 5.4784-2.83648 7.872-1.43104 18.11456 4.10368 29.888 0.84224 1.79712 3.48416 8.01792 5.86752 13.824L785.92 702.976l-0.12544 17.92c-0.06656 9.856-0.29696 19.05664-0.512 20.44928-0.55808 3.64288 1.98144 3.76064 10.36288 0.4736 8.11008-3.18464 10.74944-2.49856 9.60256 2.49088-0.72192 3.14624-18.26048 34.70336-24.22272 43.58656-5.09184 7.58528-4.97152 7.80288 8.07424 14.40256 5.57312 2.81856 10.26304 5.83936 10.42432 6.71488 0.84224 4.5824-33.50016 42.37056-48.41984 53.27872C717.89056 886.57152 657.34656 916.48 641.408 916.48h-4.70784l0.6528-3.4816c0.3584-1.91488 1.34656-4.86912 2.19392-6.56896 4.9536-9.93024 8.38912-60.01408 4.76928-69.52448-0.59904-1.57184-1.37472-4.58496-1.72544-6.69696-1.1136-6.7328-4.40064-4.88704-5.85728 3.2896-0.45568 2.55488-1.29024 7.1808-1.85088 10.2784a422.4512 422.4512 0 0 0-1.94304 11.9808c-1.088 7.50336-6.36416 16.92416-12.33664 22.03392-7.09888 6.06976-46.92736 24.35328-53.05088 24.35328-1.02656 0-5.30432 1.1392-9.50784 2.5344-4.20352 1.39264-9.13152 2.54464-10.95168 2.56-1.8176 0.0128-5.0432 0.6528-7.168 1.4208-10.12224 3.65568-33.04448 5.45536-33.04448 2.59328 0-0.62208 4.51328-5.80608 10.02752-11.52s11.85024-12.4288 14.08-14.9248c2.22976-2.49344 7.04768-7.7312 10.70848-11.6352 31.12448-33.20064 32.64256-62.38464 5.38368-103.63648-18.95424-28.68992-54.1696-65.43616-39.02464-40.72192 3.91168 6.38464 15.20896 28.2112 15.20896 29.3888 0 0.27904 2.33984 5.248 5.1968 11.04128 5.44256 11.03104 5.63968 11.50208 11.58144 27.93728 11.01056 30.44864-1.54112 57.50016-39.81824 85.8112-28.64384 21.18656-49.09312 30.528-76.8 35.0848-5.632 0.92416-11.8528 2.09408-13.824 2.59584-1.9712 0.50432-9.41056 0.91904-16.52992 0.9216-16.27392 0.00768-16.60672-0.47616-6.85824-9.90976 33.9328-32.83456 41.20576-57.024 32.73216-108.86912-3.05664-18.7008-13.70368-49.54624-21.29152-61.67552-1.31328-2.10176-2.38848-4.04992-2.38848-4.33152 0-2.70848-22.82496-37.41696-24.60928-37.41696-2.01472 0-1.49504 2.21952 5.63968 24.064 4.6336 14.1824 5.98016 18.70848 8.22784 27.648 0.99072 3.9424 2.5344 9.472 3.4304 12.288 1.18272 3.7248 1.72544 10.48832 1.98656 24.8064l0.36096 19.6864-2.89024 5.4016c-3.96544 7.41376-13.71392 17.1776-17.152 17.1776H367.616v-13.89056c0-30.63552-21.05344-52.01664-95.232-96.72704-58.76224-35.4176-78.85312-60.15488-78.84544-97.08032 0.00512-18.57024 4.34176-31.46752 17.79456-52.90752 9.28512-14.80192 8.99072-15.37024-4.60032-8.86016-28.27008 13.5424-49.78944 14.90944-81.87648 5.20704-18.16576-5.49376-26.47296-11.10016-45.02016-30.3872-15.75936-16.38912-16.00768-17.7408-2.33472-12.64384 11.72224 4.37248 18.048 5.44512 28.99456 4.92544 26.56-1.26464 36.74368-9.25952 72.69376-57.05984 7.94112-10.56 25.92256-32.07424 33.73056-40.35328 12.16-12.89984 15.74912-16.0256 43.59168-37.952 36.4032-28.66688 36.63104-31.33952 1.16224-13.63968-10.25024 5.11488-15.79264 8.256-30.34624 17.1904-0.8448 0.51968-4.3008 2.5472-7.68 4.51072a326.5536 326.5536 0 0 0-11.74272 7.20896c-9.16224 5.9648-9.40288 4.99968-3.99616-16.1536 10.30144-40.32512 30.84032-67.00032 69.49888-90.2656 22.38208-13.47072 58.62144-31.97952 73.22112-37.39648 5.06624-1.87904 9.67168-3.74528 10.23488-4.14464 5.02528-3.57888 50.24512-16.192 69.23776-19.3152 15.03488-2.47296 43.73504 0.0384 73.61024 6.43584 21.70624 4.65152 19.7504 0.15872-3.92448-9.01888-27.06944-10.49088-65.25184-13.64736-94.89152-7.84128-2.816 0.55296-8.576 1.67424-12.8 2.496-19.40224 3.76576-65.2288 18.32192-84.48 26.83392-1.6896 0.74496-6.0672 2.58816-9.728 4.09344-6.2848 2.5856-21.78304 10.46272-33.40544 16.97792-9.8688 5.53472-9.92 3.81184-0.3072-10.3424 19.83232-29.20448 42.17344-51.01568 75.18464-73.408 19.30496-13.09696 32.7168-19.82208 54.784-27.47648 17.08288-5.92384 30.53056-9.344 50.61632-12.87936 23.41376-4.11904 67.1104-3.08736 86.69184 2.04288 18.27328 4.78976 22.70976 6.42304 43.42784 16 15.104 6.98112 18.30656 8.63232 32.64768 16.8448 8.3584 4.7872 17.56672 10.0096 20.45952 11.60448a196.97152 196.97152 0 0 1 8.8448 5.18912C649.71264 219.06688 687.11168 240.64 688.92416 240.64c11.34592 0-29.68576-30.86592-85.00992-63.9488-28.05248-16.77568-34.368-24.22272-40.65792-47.96416-4.41088-16.64768-4.09344-16.96512 6.976-7.00928m-92.70784 162.51904c-5.69344 5.696-1.57184 30.71232 8 48.5632 12.04992 22.47168 28.98944 34.42688 57.70752 40.73472 19.86048 4.36224 23.31392 1.46432 7.80544-6.55104C536.64512 359.54944 517.12 341.0176 517.12 334.79424c0-1.47968 0.65536-1.51296 6.4-0.32768 19.99104 4.12416 21.53216 2.74432 8.43776-7.55968-4.50048-3.54048-10.71616-8.82432-13.81376-11.74272l-5.632-5.30432 2.89792-0.38144c1.59488-0.20992 6.43328 0.30464 10.752 1.14176 4.32128 0.83968 12.23168 1.81504 17.58208 2.17088 5.3504 0.35584 14.336 1.3056 19.968 2.112 14.92736 2.14016 25.37472 2.22976 28.39808 0.25088 10.84416-7.10656 35.48928-28.40064 35.57376-30.73792 0.04352-1.1648-3.86304-0.88832-11.23584 0.79616-19.15904 4.3776-105.1008 5.02272-111.872 0.83712-0.53248-0.33024-6.30272-1.41056-12.81536-2.40128l-11.84512-1.79968-2.39104 2.38848m211.31264 10.73664c-10.99776 4.46464-21.30944 13.29152-54.1568 46.35904-4.97408 5.00736-5.17888 7.26784-0.56832 6.272 3.07968-0.66304 33.2032-12.17792 40.192-15.36256 8.41984-3.83488 17.92-6.50496 17.92-5.03296 0 0.43264-6.12608 7.05024-13.61408 14.70976-29.79328 30.464-42.19136 63.93856-31.62112 85.38368 13.91872 28.24704 38.4256 48.05632 59.34848 47.9744 12.07808-0.04864 13.4912-0.448 40.064-11.30496 18.86464-7.71072 23.24224-6.77632 15.13984 3.2256-13.06112 16.128-5.69856 15.17312 9.43104-1.22368 17.75104-19.2384 33.62816-28.10112 23.3344-13.02528-9.03168 13.22752-11.97056 21.44-11.97056 33.44896v10.94656l4.99456 7.07072c7.0912 10.04032 19.16928 21.3632 26.39616 24.75008l5.98528 2.8032h27.136c50.51136 0 58.61888-2.62912 67.32544-21.83424 6.30528-13.90336 2.1632-22.51008-16.63744-34.59328-3.9424-2.5344-15.232-9.7792-25.088-16.09728-9.93792-6.37184-17.92-12.16256-17.92-13.00224 0-1.2928 5.00736-1.60256 34.304-2.12736 21.43232-0.384 35.64544-1.05472 37.88032-1.792 1.96864-0.64768 5.5552-1.1776 7.96928-1.1776 9.23392 0 5.7088-5.29408-13.5936-20.42112-38.90176-30.4896-70.24128-46.13888-92.40064-46.13888-19.20768 0-20.54656 3.13856-2.83136 6.63552 9.30816 1.83808 32.57088 14.0672 32.0128 16.832-0.37888 1.88928-1.51296 1.90976-15.92576 0.26368-24.50432-2.79808-30.31552-1.66912-41.69984 8.1024-8.92416 7.66208-12.032 8.73472-29.1712 10.07104-23.9104 1.86368-35.14112-0.94976-49.664-12.43648-9.98912-7.90016-9.09312-8.2688 8.704-3.57632 27.79904 7.32928 47.56992 4.23424 52.79488-8.2688 3.76832-9.02144 1.28256-10.50112-13.45536-8.01024-16.82176 2.8416-27.56608 2.30912-35.36384-1.75104-38.272-19.9296-41.51552-22.65856-25.58976-21.5296 8.90624 0.63232 21.63712-1.24928 27.12064-4.00896 7.93856-3.9936 36.90496-0.29696 43.08224 5.49888 1.4976 1.408 8.75008 1.09568 9.32352-0.3968 0.27648-0.72192-0.71168-5.90592-2.19392-11.52-3.81184-14.44096-4.01152-15.84128-2.22976-15.84128 1.52576 0 8.64768 7.21408 17.48224 17.70496 2.70848 3.21536 5.35808 5.84704 5.888 5.84704 1.85344 0 0.92416-7.72608-1.57696-13.09952-4.11648-8.84224-0.92672-7.99488 16.41728 4.35968 4.32384 3.07968 2.85952-3.3024-2.6496-11.55328-9.99424-14.96832-29.61664-28.77952-53.94432-37.96736-13.18144-4.9792-13.25568-4.92288-7.42144 5.71136 4.81536 8.77568 3.9296 10.41664-3.35104 6.19776-30.3744-17.60768-51.04384-22.98624-65.60768-17.0752m-284.08576 46.46912c-37.504 17.97376-74.58816 55.8208-100.00896 102.06976-6.63552 12.0704-4.5568 13.12256 7.2192 3.66336 51.83488-41.6384 86.7968-55.66464 149.0944-59.81184 11.42528-0.76032 8.40448-4.34432-5.376-6.37696a530.2272 530.2272 0 0 1-12.8-2.0736c-12.1728-2.1632-31.03744-2.3936-40.448-0.49408-13.14304 2.65216-20.48 3.0592-20.48 1.13152 0-1.82784 8.13824-12.20096 21.4144-27.29472 14.0672-15.99488 14.19008-16.94976 1.38496-10.81344m182.2592 74.55744a479.00672 479.00672 0 0 0-9.49504 12.544c-13.66016 18.83648-29.29664 30.24384-55.27552 40.32768l-10.85952 4.21888c-1.18528 0.46336-9.47968 3.2384-18.432 6.16704a7605.48352 7605.48352 0 0 0-21.90848 7.19616c-3.0976 1.02912-9.088 2.86464-13.312 4.07808-20.7232 5.95712-53.14048 16.45568-69.632 22.55104-4.7872 1.77152-10.17856 3.648-11.9808 4.1728-1.80224 0.52736-4.56704 1.62816-6.144 2.45248-1.57696 0.82176-3.2128 1.4976-3.63776 1.50272-1.75616 0.0128-40.69888 15.83616-47.33184 19.23072-39.16288 20.03968-61.04064 54.98368-50.65984 80.9088 10.33984 25.82784 47.1424 67.12064 38.26176 42.9312-21.02528-57.2672-11.10016-85.25056 37.48864-105.7024 3.40224-1.43104 9.27744-4.0192 13.06112-5.75488 3.78368-1.73312 9.41312-4.0832 12.51072-5.21984 3.0976-1.13664 6.06976-2.4704 6.6048-2.96192 0.53504-0.49408 1.68704-0.90112 2.56-0.90368 0.87296-0.00512 2.8032-0.64256 4.288-1.41568 1.4848-0.77568 5.1712-2.21696 8.192-3.20256 3.0208-0.9856 5.952-2.14272 6.5152-2.5728 0.5632-0.43008 2.6368-1.26464 4.608-1.856 1.9712-0.59136 7.5008-2.50624 12.288-4.25472 4.7872-1.75104 15.8464-5.52192 24.576-8.38144 8.7296-2.86208 16.7936-5.568 17.92-6.01856 1.1264-0.45056 4.84864-1.74592 8.27392-2.87744 22.77632-7.53408 59.86048-22.912 75.84256-31.44704 24.74752-13.21728 36.32384-27.24864 48.46592-58.74176 6.0544-15.70816 5.39392-17.36448-2.78784-6.97088m158.46144 87.34208c-27.09504 17.6768-46.06976 51.22816-56.44544 99.79392-4.02176 18.8288-5.1072 24.064-6.58944 31.744-0.92416 4.7872-2.048 12.6208-2.49344 17.408-0.448 4.7872-1.29024 10.3168-1.87392 12.288-1.86368 6.31552-3.25376 14.36672-3.25376 18.85952 0 2.40128-0.71168 6.62784-1.58208 9.39264-1.57952 5.02272-3.38176 29.09184-2.17856 29.09184 0.896 0 3.19488-4.6464 7.45984-15.07584l7.23456-17.68704c28.8256-70.464 55.3344-113.39776 84.21376-136.40192 11.9168-9.49248 13.71136-11.57888 11.34848-13.18656-1.9456-1.32352-13.19424-0.34048-18.24512 1.59744-5.62432 2.15552-17.41312 4.864-18.87488 4.33408-0.73728-0.2688 3.39456-5.02272 9.728-11.19488 16.49152-16.0768 15.1552-17.96608-10.24-14.49216-6.45888 0.8832-5.66528-1.40288 2.89792-8.32 15.50336-12.52608 14.6944-18.46016-1.10592-8.15104m-135.47008 3.79392c-25.1904 23.82592-39.35232 81.85856-29.2992 120.064 3.92448 14.90944 6.08768 22.72256 9.64608 34.816 1.48992 5.0688 3.57376 12.4416 4.62848 16.384 1.05472 3.9424 2.83904 10.1632 3.96544 13.824 1.12896 3.6608 3.10784 10.112 4.40064 14.336 5.30176 17.31328 6.95808 14.08512 11.56352-22.528 0.81664-6.4768 1.95584-14.08 2.5344-16.896 0.57856-2.816 1.53856-7.6544 2.13248-10.752 4.03456-21.02784 15.37536-60.04224 24.25856-83.456 5.46048-14.39744 14.12096-28.89472 31.16288-52.18304 10.70848-14.6304 7.8464-14.35392-12.87424 1.24416-23.66208 17.81248-46.14656 45.38112-56.44288 69.2096-6.12608 14.17472-7.73632 5.53472-4.07808-21.85472 3.98592-29.84448 6.72768-42.46016 12.3904-57.00608 3.77344-9.69728 2.5088-11.34592-3.98848-5.20192m262.2976 41.42592c-5.98016 0.91904-18.3552 32.04608-12.74112 32.04608 5.78816 0 29.1456-27.80928 26.69312-31.77984-0.59392-0.96-8.4608-1.10848-13.952-0.26624M510.464 561.18016c-1.6896 0.46336-6.0672 1.58208-9.728 2.48576-25.664 6.32576-52.35712 21.26336-62.16448 34.78272-14.09536 19.43808-15.45984 58.2144-2.84928 80.97536 7.43168 13.40928 17.41568 23.4368 15.552 15.616-13.47328-56.50432 2.84672-95.7696 52.0448-125.22752 8.86272-5.30688 11.75296-7.4752 11.75296-8.8192 0-0.98816-0.37888-0.9728-4.608 0.18688m245.952 123.67616c-3.03872 3.16928-3.90144 10.92864-1.48736 13.34272 1.728 1.728 2.42944 22.6944 0.85504 25.63328-1.9968 3.73504-4.73344 2.6496-8.04352-3.19232-4.62592-8.15616-12.32384-18.176-13.9648-18.176-0.80384 0-4.95104 3.9808-9.21856 8.84992-8.33024 9.50016-9.60512 13.71392-6.8096 22.48448 0.51968 1.63328 1.91232 6.1952 3.09248 10.1376 4.79744 16.01792 9.02144 18.2912 23.60832 12.71296 3.0976-1.18528 7.68256-2.57536 10.18624-3.08736 15.49056-3.17952 18.4448-8.45824 18.4704-33.01632 0.0256-26.11712-8.46336-44.2752-16.68864-35.68896m-65.152 33.63072c-1.13152 1.43872-2.31168 4.29824-2.624 6.35392-0.30976 2.05312-1.4464 7.19104-2.52416 11.41504-1.07776 4.224-2.22464 10.2144-2.54464 13.312-0.32256 3.0976-1.10592 7.936-1.7408 10.752-1.94048 8.59392-2.3424 53.76-0.47872 53.76 2.05056 0 4.6848-3.96032 9.52832-14.336 6.78912-14.54336 8.59136-14.61248 10.39872-0.3968 2.22464 17.51552 1.3184 36.50048-2.48064 51.83744-0.79872 3.23072-1.45408 7.61344-1.45408 9.74336 0 2.12736-0.94464 5.632-2.0992 7.78496-4.14976 7.744 1.48992 9.0368 11.8272 2.71104 3.68128-2.2528 6.92224-4.096 7.20384-4.096 1.62816 0 21.9776-14.44096 30.68416-21.77536 21.52704-18.13248 24.27904-24.06912 8.95232-19.31776-19.28192 5.98016-24.98304 7.40608-28.39808 7.11168l-3.73248-0.32256 3.94496-5.632c13.824-19.7376 13.76768-18.54464 1.4464-30.57664-9.69472-9.46944-16.50944-19.87328-19.88096-30.35136-0.36096-1.1264-1.39776-3.8912-2.30144-6.144-0.90368-2.2528-2.04288-5.4784-2.53184-7.168-3.73248-12.90496-5.08416-19.12576-5.10976-23.552-0.06656-12.04224-2.23744-16.00512-6.08512-11.11296M765.952 768c-9.92768 2.18112-22.528 7.73888-22.528 9.93792 0 1.4464 13.51168 10.54208 15.66208 10.54208 2.94144 0 13.20192-13.21984 14.60736-18.82368 0.74752-2.97472-0.512-3.24608-7.74144-1.65632" fill="#FBFBFB" p-id="9879"></path></svg>