<svg xmlns="http://www.w3.org/2000/svg" viewBox="0 0 64 64" fill="none">
  <!-- 狼头轮廓 -->
  <defs>
    <linearGradient id="wolfGradient" x1="0%" y1="0%" x2="100%" y2="100%">
      <stop offset="0%" style="stop-color:#667eea;stop-opacity:1" />
      <stop offset="100%" style="stop-color:#764ba2;stop-opacity:1" />
    </linearGradient>
  </defs>

  <!-- 头部 -->
  <path d="M32 8 L22 15 L18 25 L16 35 L18 45 L22 52 L32 58 L42 52 L46 45 L48 35 L46 25 L42 15 L32 8 Z"
        fill="url(#wolfGradient)" opacity="0.9"/>

  <!-- 耳朵 -->
  <path d="M20 12 L16 8 L18 18 Z" fill="url(#wolfGradient)"/>
  <path d="M44 12 L48 8 L46 18 Z" fill="url(#wolfGradient)"/>

  <!-- 眼睛 -->
  <circle cx="24" cy="28" r="3" fill="#fff"/>
  <circle cx="40" cy="28" r="3" fill="#fff"/>
  <circle cx="24" cy="28" r="1.5" fill="#1a1a1a"/>
  <circle cx="40" cy="28" r="1.5" fill="#1a1a1a"/>

  <!-- 鼻子 -->
  <path d="M32 36 L28 40 L32 42 L36 40 Z" fill="#1a1a1a"/>

  <!-- 嘴巴 -->
  <path d="M32 42 L28 44 M32 42 L36 44" stroke="#1a1a1a" stroke-width="1.5" fill="none"/>

  <!-- 牙齿暗示 -->
  <path d="M26 42 L26 46 M30 42 L30 46 M34 42 L34 46 M38 42 L38 46"
        stroke="#fff" stroke-width="1" opacity="0.6"/>
</svg>
